<?xml version="1.0" standalone="no"?>
<!DOCTYPE svg PUBLIC "-//W3C//DTD SVG 20010904//EN"
 "http://www.w3.org/TR/2001/REC-SVG-20010904/DTD/svg10.dtd">
<svg version="1.0" xmlns="http://www.w3.org/2000/svg"
 width="260.000000pt" height="260.000000pt" viewBox="0 0 260.000000 260.000000"
 preserveAspectRatio="xMidYMid meet">
<metadata>
Created by potrace 1.14, written by Peter Selinger 2001-2017
</metadata>
<g transform="translate(0.000000,260.000000) scale(0.100000,-0.100000)"
fill="#000000" stroke="none">
<path d="M0 1300 l0 -1300 1300 0 1300 0 0 1300 0 1300 -1300 0 -1300 0 0
-1300z m1060 615 c0 -14 -11 -18 -81 -30 -20 -3 -47 -17 -60 -31 l-24 -26 -5
-436 c-6 -418 -7 -440 -28 -496 -32 -87 -87 -144 -170 -176 -101 -38 -220 -19
-270 45 -48 61 -12 147 61 147 47 0 62 -12 97 -83 16 -31 35 -59 42 -61 23 -9
58 11 68 37 6 16 10 217 10 512 0 421 -2 489 -16 518 -16 34 -54 55 -100 55
-33 0 -54 10 -54 26 0 12 45 14 265 14 227 0 265 -2 265 -15z m804 -9 c115
-34 188 -83 224 -151 9 -18 17 -65 20 -117 4 -74 1 -93 -17 -132 -30 -60 -77
-100 -152 -127 l-62 -23 50 -17 c174 -59 246 -143 246 -287 0 -98 -28 -165
-89 -222 -103 -95 -186 -109 -626 -110 -289 0 -338 2 -338 15 0 9 14 16 38 20
74 12 95 21 116 48 21 28 21 36 21 522 0 486 0 494 -21 522 -21 27 -42 36
-116 48 -25 4 -38 11 -38 21 0 14 39 15 343 11 286 -3 352 -7 401 -21z"/>
<path d="M1497 1853 c-4 -3 -7 -110 -7 -236 l0 -229 133 4 c121 3 138 6 190
31 80 40 111 93 112 191 0 127 -55 198 -180 231 -59 15 -236 21 -248 8z"/>
<path d="M1490 1071 c0 -300 -9 -281 140 -281 233 0 332 77 332 256 0 124 -45
191 -158 233 -52 20 -192 40 -276 41 l-38 0 0 -249z"/>
</g>
</svg>
